<svg xmlns="http://www.w3.org/2000/svg" xmlns:xlink="http://www.w3.org/1999/xlink" width="500" zoomAndPan="magnify" viewBox="0 0 375 374.999991" height="500" preserveAspectRatio="xMidYMid meet" version="1.0"><defs><clipPath id="f05f167163"><path d="M 3.050781 198 L 371 198 L 371 375 L 3.050781 375 Z M 3.050781 198 " clip-rule="nonzero"/></clipPath></defs><path fill="#0a4570" d="M 91.570312 204.550781 C 94.886719 228.519531 102.515625 252.136719 115.816406 272.476562 C 116.878906 274.917969 121.351562 278.726562 120.789062 281.011719 C 118.089844 287.847656 110.175781 289.804688 104.160156 292.707031 C 72.929688 308.394531 83.25 336.347656 117.222656 329.496094 C 124.207031 328.105469 125.964844 332.511719 132.585938 329.886719 C 137.746094 327.84375 144.621094 339.988281 149.777344 337.941406 C 166.585938 337.085938 181.933594 351.855469 195.980469 359.179688 C 196.554688 353.941406 194.761719 340.640625 216.019531 335.734375 C 225.429688 333.566406 231.054688 316.503906 246.1875 314.503906 C 251.839844 283.683594 199.90625 241.085938 168.238281 224.828125 C 126.347656 203.328125 166.179688 90.457031 97.34375 80.789062 C 77.769531 88.417969 78.527344 112.855469 82.875 130.09375 C 88.195312 157.351562 86.257812 177.289062 91.578125 204.550781 Z M 91.570312 204.550781 " fill-opacity="1" fill-rule="nonzero"/><path fill="#0086ff" d="M 150.429688 302.644531 C 143.308594 310.996094 110.855469 330.519531 84.460938 318.140625 C 82.90625 314.734375 82.730469 310.785156 83.878906 307.101562 C 89.117188 287.820312 70.75 289.132812 72.210938 273.507812 C 72.300781 272.417969 71.902344 271.335938 71.121094 270.574219 C 61.445312 261.433594 68.082031 258.578125 67.984375 249.324219 C 66.402344 236.023438 51.398438 237.148438 43.433594 228.582031 C 32.652344 213.125 73.742188 196.851562 65.375 153.878906 C 61.992188 132.398438 68.796875 110.53125 83.355469 94.4375 C 164.140625 141.550781 86.644531 181.03125 96.230469 215.582031 C 106.570312 252.851562 203.0625 240.949219 150.429688 302.644531 L 150.421875 302.644531 Z M 150.429688 302.644531 " fill-opacity="1" fill-rule="nonzero"/><path fill="#2fc0f2" d="M 211.730469 323.421875 L 145.050781 335.734375 L 127.246094 327.390625 C 107.757812 336.539062 79.359375 329.496094 83.878906 307.105469 C 89.125 287.847656 70.746094 289.125 72.210938 273.511719 C 71.167969 267.339844 62.617188 266.125 66.894531 255.988281 C 73.507812 238.960938 52.640625 237.390625 43.433594 228.585938 C 32.476562 213.488281 73.683594 196.953125 65.375 153.878906 C 61.988281 132.390625 68.796875 110.53125 83.359375 94.4375 L 85.171875 95.507812 C 98.972656 92.296875 128.882812 113.066406 125.480469 161.425781 C 122.316406 228.699219 133.828125 230.929688 170.273438 247.207031 C 196.460938 258.910156 217.378906 289.78125 211.730469 323.417969 Z M 211.730469 323.421875 " fill-opacity="1" fill-rule="nonzero"/><path fill="#0a4570" d="M 191.609375 326.21875 C 190.957031 342.855469 187.128906 356.867188 188.066406 359.175781 C 188.441406 360.101562 188.722656 360.941406 188.929688 361.691406 C 184.945312 363.042969 180.988281 364.28125 177.054688 365.417969 C 169.863281 362.347656 162.183594 357.28125 162.183594 356.984375 C 153.308594 342.273438 151.175781 338.890625 145.171875 335.535156 C 141.558594 333.507812 136.542969 331.496094 127.800781 327.03125 C 127.800781 327.03125 177.230469 312.226562 186.042969 291.476562 C 191.027344 302.378906 192.054688 314.90625 191.609375 326.21875 Z M 191.609375 326.21875 " fill-opacity="0.3" fill-rule="nonzero"/><path fill="#ffffff" d="M 150.429688 302.644531 C 143.183594 312.75 104.847656 330.035156 84.460938 318.140625 C 82.90625 314.734375 82.730469 310.785156 83.878906 307.101562 C 89.144531 287.929688 70.75 289.082031 72.210938 273.507812 C 72.300781 272.417969 71.902344 271.335938 71.121094 270.574219 C 61.4375 261.417969 68.082031 258.585938 67.984375 249.324219 C 66.402344 236.023438 51.398438 237.148438 43.433594 228.582031 C 32.644531 213.167969 73.746094 196.824219 65.375 153.878906 C 61.972656 132.363281 68.859375 110.441406 83.355469 94.4375 C 164.140625 141.550781 86.644531 181.03125 96.230469 215.582031 C 106.570312 252.851562 203.0625 240.949219 150.429688 302.644531 Z M 150.429688 302.644531 " fill-opacity="0.4" fill-rule="nonzero"/><path fill="#ffffff" d="M 121.921875 309.855469 C 111.304688 320.820312 99.996094 325.988281 84.460938 318.144531 C 82.90625 314.738281 82.730469 310.789062 83.878906 307.105469 C 89.121094 287.824219 70.75 289.140625 72.210938 273.511719 C 72.300781 272.421875 71.902344 271.34375 71.121094 270.578125 C 61.398438 261.320312 68.105469 258.632812 67.984375 249.332031 C 66.652344 236.269531 50.851562 236.78125 43.433594 228.585938 C 39.707031 223.464844 42.011719 218.164062 46.351562 211.710938 C 84.332031 164.574219 52.347656 156.414062 71.234375 112.730469 C 123.867188 154.996094 58.902344 190.984375 67.726562 222.785156 C 78.066406 260.050781 174.570312 248.160156 121.921875 309.851562 Z M 121.921875 309.855469 " fill-opacity="0.3" fill-rule="nonzero"/><path fill="#ffffff" d="M 55.738281 236.058594 C 43.515625 231.203125 36.378906 225.121094 46.355469 211.703125 C 44.515625 220.996094 48.417969 230.105469 55.738281 236.058594 Z M 55.738281 236.058594 " fill-opacity="0.2" fill-rule="nonzero"/><path fill="#ffffff" d="M 65.375 153.878906 C 64.101562 145.785156 64.273438 137.621094 65.769531 129.730469 C 73.808594 143.289062 71.632812 156.183594 66.398438 168.488281 C 66.671875 163.980469 66.398438 159.125 65.378906 153.882812 Z M 65.375 153.878906 " fill-opacity="0.39" fill-rule="nonzero"/><path fill="#0a4570" d="M 100.96875 309.855469 C 96.53125 314.042969 92.507812 317.535156 88.121094 319.679688 C 86.945312 319.238281 85.730469 318.726562 84.46875 318.144531 C 82.914062 314.738281 82.734375 310.789062 83.882812 307.105469 C 89.125 287.824219 70.753906 289.140625 72.214844 273.511719 C 72.304688 272.421875 71.90625 271.34375 71.125 270.578125 C 58.914062 260.253906 73.457031 252.816406 65.339844 242.546875 C 94.289062 258.539062 141.210938 262.691406 100.96875 309.859375 Z M 100.96875 309.855469 " fill-opacity="0.05" fill-rule="nonzero"/><path fill="#0a4570" d="M 327.132812 168.738281 C 327.09375 171.171875 326.988281 173.601562 326.816406 176.039062 C 324.203125 208.882812 311.886719 237.191406 293.578125 265.910156 C 289.164062 274.476562 280.75 279.214844 281.050781 294.21875 L 277.027344 294.949219 C 276.382812 277.148438 286.1875 272.066406 291.5625 261.445312 C 303.675781 242.066406 312.164062 224.144531 317.867188 203.476562 C 318.316406 201.808594 318.734375 200.152344 319.125 198.503906 C 322.460938 184.308594 323.804688 170.429688 322.636719 156.117188 C 316.46875 71.867188 216.820312 26.921875 142.808594 55.074219 C 104.53125 70.617188 60.242188 106.046875 67.214844 152.328125 C 72.722656 187.078125 54.917969 201.316406 43.6875 220.28125 C 40.171875 234.953125 69.492188 231.839844 70.019531 249.085938 C 70.691406 257.917969 63.472656 260.882812 72.558594 269.113281 C 76.769531 274.488281 70.988281 279.570312 79.894531 286.203125 C 92.878906 297.664062 82.355469 307.492188 86.328125 317.296875 C 100.351562 340.003906 119.519531 321.28125 138.292969 330.304688 C 138.292969 330.304688 153.625 337.488281 153.625 337.488281 L 151.894531 341.191406 C 151.894531 341.191406 136.558594 334.007812 136.558594 334.007812 C 131.058594 331.429688 124.75 330.789062 118.808594 332.191406 C 103.140625 335.9375 89.714844 331.578125 82.601562 318.984375 C 77.800781 309.113281 88.082031 298.320312 77.441406 289.480469 C 72.898438 286.085938 70.441406 281.65625 70.128906 276.304688 C 69.839844 274.964844 70.695312 273.164062 69.6875 272.03125 C 65.515625 267.902344 63.078125 264.160156 63.902344 258.714844 C 64.441406 255.816406 66.546875 252.59375 65.957031 249.566406 C 64.703125 234.472656 33.683594 237.398438 39.933594 218.65625 C 41.308594 215.464844 43.871094 212.015625 46.84375 208.015625 C 81.820312 169.746094 44.058594 133.867188 81.835938 93.0625 C 110.957031 61.484375 145.398438 43.460938 187.066406 42.527344 C 258.675781 40.046875 329.613281 93.230469 327.128906 168.730469 Z M 327.132812 168.738281 " fill-opacity="1" fill-rule="nonzero"/><path fill="#0086ff" d="M 248.367188 272.882812 C 248.367188 272.882812 219.847656 250.746094 219.847656 250.746094 C 219.832031 250.746094 186.386719 199.789062 186.355469 199.757812 C 179.664062 182.171875 167.484375 146.203125 162.339844 128.15625 L 160.820312 127.957031 L 161.835938 127.222656 L 136.644531 91.554688 L 113.640625 68.253906 L 114.992188 67.308594 L 137.90625 90.503906 C 137.953125 90.558594 163.113281 126.203125 163.160156 126.265625 L 205.585938 95.671875 L 210.425781 133.378906 L 218.410156 160.707031 C 230.046875 144.460938 252.242188 110.480469 262.703125 93.351562 L 293.058594 132.066406 L 272.800781 152.210938 L 250.503906 182.917969 L 280.046875 213.023438 C 280.046875 213.023438 248.371094 272.882812 248.367188 272.882812 Z M 221.0625 249.625 L 247.832031 270.398438 L 278.035156 213.324219 L 248.367188 183.085938 L 271.597656 151.109375 L 290.875 131.941406 L 262.851562 96.195312 C 252.269531 113.621094 229.640625 147.855469 217.804688 164.484375 L 208.984375 134.289062 L 164.125 128.390625 C 169.191406 146.1875 181.222656 181.667969 187.832031 199.019531 C 187.832031 199.019531 221.066406 249.621094 221.066406 249.621094 Z M 165.117188 126.875 L 208.675781 132.601562 L 204.3125 98.609375 Z M 165.117188 126.875 " fill-opacity="1" fill-rule="nonzero"/><path fill="#0086ff" d="M 219.191406 163.414062 L 171.546875 163.414062 L 210.054688 132.132812 L 219.1875 163.414062 Z M 176.15625 161.777344 L 217.007812 161.777344 L 209.175781 134.960938 Z M 176.15625 161.777344 " fill-opacity="1" fill-rule="nonzero"/><path fill="#0086ff" d="M 229.203125 214.402344 L 185.6875 199.785156 L 218.574219 160.769531 L 229.199219 214.402344 Z M 188.488281 198.996094 L 227.054688 211.953125 L 217.632812 164.425781 L 188.492188 199 Z M 188.488281 198.996094 " fill-opacity="1" fill-rule="nonzero"/><path fill="#0086ff" d="M 249.484375 183.824219 L 249.371094 182.191406 L 299.292969 178.746094 L 271.601562 152.277344 L 272.730469 151.09375 L 303.101562 180.121094 Z M 249.484375 183.824219 " fill-opacity="1" fill-rule="nonzero"/><path fill="#0086ff" d="M 162.167969 127.300781 L 170.933594 70.300781 L 172.546875 70.546875 L 163.78125 127.546875 Z M 162.167969 127.300781 " fill-opacity="1" fill-rule="nonzero"/><path fill="#0086ff" d="M 296.289062 282.40625 L 247.476562 272.34375 L 228.320312 216.265625 L 221.253906 250.34375 L 219.652344 250.011719 L 227.546875 211.945312 L 223.339844 211.78125 L 248.199219 183.171875 L 215.980469 162.183594 L 270.128906 151.253906 L 240.445312 130.605469 L 209.71875 134.351562 L 209.519531 132.726562 L 240.867188 128.898438 L 274.207031 152.09375 L 220.222656 162.984375 L 250.664062 182.816406 L 226.808594 210.269531 L 227.886719 210.308594 L 227.9375 210.0625 L 228.019531 210.316406 L 279.6875 212.367188 L 296.289062 282.386719 Z M 248.71875 270.929688 L 294.101562 280.285156 L 278.378906 213.960938 L 228.585938 211.992188 Z M 248.71875 270.929688 " fill-opacity="1" fill-rule="nonzero"/><path fill="#0086ff" d="M 334.835938 222.3125 L 277.652344 213.796875 L 300.335938 179.261719 L 291.28125 132.796875 L 240.332031 130.566406 C 224.078125 115.007812 189.816406 85.058594 171.941406 71.621094 L 171.785156 71.867188 L 171.515625 71.496094 L 136.09375 92.691406 L 148.074219 36.207031 L 171.699219 68.953125 L 195.878906 30.996094 L 229.015625 68.519531 L 206.074219 97.046875 L 241 128.949219 L 292.644531 131.210938 L 302.074219 179.589844 L 280.429688 212.542969 L 335.085938 220.679688 C 335.085938 220.679688 334.851562 222.296875 334.839844 222.304688 Z M 172.8125 70.238281 L 203.847656 95.210938 L 195.464844 34.675781 Z M 197.15625 34.9375 L 205.492188 95.152344 L 226.863281 68.582031 L 197.152344 34.9375 Z M 148.898438 40.164062 L 138.457031 89.367188 L 170.546875 70.167969 L 148.898438 40.160156 Z M 148.898438 40.164062 " fill-opacity="1" fill-rule="nonzero"/><path fill="#0a4570" d="M 317.851562 103.300781 L 317.03125 102.222656 L 319.683594 99.386719 C 320.378906 100.035156 321.964844 101.523438 322.671875 102.183594 C 322.367188 102.507812 319.472656 105.609375 319.085938 106.019531 Z M 317.851562 103.300781 " fill-opacity="0.4" fill-rule="nonzero"/><path fill="#0a4570" d="M 339.390625 171.75 C 339.421875 171.648438 339.277344 170.773438 339.265625 170.652344 L 341.765625 172.839844 L 339.347656 173.355469 Z M 339.390625 171.75 " fill-opacity="0.4" fill-rule="nonzero"/><path fill="#0086ff" d="M 334.320312 222.011719 L 299.730469 178.910156 L 335.578125 171.234375 L 290.785156 132.066406 L 319.738281 101.121094 L 320.929688 102.238281 L 293.132812 131.949219 L 339.109375 172.148438 L 302.664062 179.957031 L 335.589844 220.996094 Z M 334.320312 222.011719 " fill-opacity="1" fill-rule="nonzero"/><path fill="#0086ff" d="M 292 132.824219 L 291.910156 131.195312 L 331.65625 128.992188 L 331.746094 130.621094 Z M 292 132.824219 " fill-opacity="1" fill-rule="nonzero"/><path fill="#0086ff" d="M 227.445312 69.207031 L 228.429688 67.902344 L 263.261719 94.125 L 262.277344 95.429688 Z M 227.445312 69.207031 " fill-opacity="1" fill-rule="nonzero"/><path fill="#0086ff" d="M 204.902344 96.320312 L 261.808594 93.257812 L 261.898438 94.890625 L 204.992188 97.949219 Z M 204.902344 96.320312 " fill-opacity="1" fill-rule="nonzero"/><path fill="#0a4570" d="M 264.816406 48.667969 L 264.816406 54.90625 L 261.136719 52.316406 L 260.722656 52.542969 L 260.722656 48.667969 Z M 264.816406 48.667969 " fill-opacity="0.4" fill-rule="nonzero"/><path fill="#0086ff" d="M 261.953125 49.902344 L 263.585938 49.902344 L 263.585938 94.777344 L 261.953125 94.777344 Z M 261.953125 49.902344 " fill-opacity="1" fill-rule="nonzero"/><path fill="#0a4570" d="M 301.683594 77.375 C 301.683594 77.375 298.828125 78.816406 298.828125 78.820312 L 297.367188 77.792969 L 297.78125 74.757812 C 298.226562 74.535156 299.40625 73.9375 299.832031 73.722656 C 300.375 74.785156 301.140625 76.304688 301.683594 77.375 Z M 301.683594 77.375 " fill-opacity="0.4" fill-rule="nonzero"/><path fill="#0086ff" d="M 262.398438 94.058594 L 299.289062 75.386719 L 300.027344 76.84375 L 263.136719 95.515625 Z M 262.398438 94.058594 " fill-opacity="1" fill-rule="nonzero"/><path fill="#0a4570" d="M 301.683594 77.375 C 301.683594 77.375 298.828125 78.816406 298.828125 78.820312 L 297.367188 77.792969 C 297.507812 76.777344 297.855469 74.210938 297.996094 73.226562 L 299.175781 74.058594 L 299.839844 73.726562 L 300.46875 74.96875 L 301.1875 75.476562 L 300.914062 75.855469 C 300.914062 75.855469 301.683594 77.378906 301.683594 77.378906 Z M 301.683594 77.375 " fill-opacity="0.4" fill-rule="nonzero"/><path fill="#0a4570" d="M 322.109375 102.773438 L 319.082031 106.015625 C 318.707031 105.15625 317.714844 102.84375 317.023438 102.214844 L 319.679688 99.382812 C 320.109375 99.765625 321.097656 100.691406 321.386719 101.183594 C 321.386719 101.183594 322.109375 102.773438 322.109375 102.773438 Z M 322.109375 102.773438 " fill-opacity="0.4" fill-rule="nonzero"/><path fill="#0086ff" d="M 295.867188 281.816406 L 294.519531 280.886719 L 335.261719 221.839844 L 336.523438 171.742188 L 330.246094 127.644531 L 318.90625 102.664062 L 300.195312 78.164062 L 292.761719 132.113281 L 291.136719 131.894531 L 299.105469 74.039062 C 299.148438 74.125 320.355469 101.796875 320.355469 101.902344 C 320.355469 101.902344 331.832031 127.179688 331.832031 127.179688 C 331.863281 127.25 338.121094 171.554688 338.15625 171.640625 C 338.152344 171.703125 336.882812 222.296875 336.878906 222.367188 C 336.808594 222.464844 295.953125 281.675781 295.855469 281.8125 Z M 295.867188 281.816406 " fill-opacity="1" fill-rule="nonzero"/><path fill="#0a4570" d="M 264.816406 49.898438 L 264.816406 54.90625 L 261.136719 52.316406 L 260.722656 52.542969 L 260.722656 48.667969 L 263.070312 48.667969 Z M 264.816406 49.898438 " fill-opacity="0.4" fill-rule="nonzero"/><path fill="#0a4570" d="M 301.179688 75.472656 L 300.910156 75.851562 C 300.910156 75.851562 298.828125 78.820312 298.824219 78.820312 L 297.363281 77.792969 C 297.503906 76.777344 297.851562 74.210938 297.992188 73.226562 C 298.921875 73.878906 300.261719 74.820312 301.1875 75.472656 Z M 301.179688 75.472656 " fill-opacity="0.4" fill-rule="nonzero"/><path fill="#0086ff" d="M 298.523438 77.109375 L 261.207031 50.863281 L 228.335938 69.265625 L 227.539062 67.839844 L 261.304688 48.933594 L 299.46875 75.769531 Z M 298.523438 77.109375 " fill-opacity="1" fill-rule="nonzero"/><path fill="#0086ff" d="M 114.011719 68.628906 L 102.660156 60.207031 C 102.660156 60.207031 148.238281 37.394531 148.238281 37.394531 L 196.035156 31.53125 C 196.28125 31.53125 261.238281 49.097656 261.46875 49.113281 L 261.046875 50.695312 L 195.917969 33.199219 L 148.71875 38.992188 L 105.773438 60.484375 L 114.988281 67.316406 L 114.011719 68.632812 Z M 114.011719 68.628906 " fill-opacity="1" fill-rule="nonzero"/><path fill="#0a4570" d="M 116.027344 328.609375 C 138.992188 322.003906 163.277344 314.617188 181.445312 298.414062 C 164.007812 315.78125 139.949219 324.578125 117.121094 332.546875 L 116.023438 328.609375 Z M 116.027344 328.609375 " fill-opacity="1" fill-rule="nonzero"/><g clip-path="url(#f05f167163)"><path fill="#2fc0f2" d="M 370.855469 219.9375 C 352.464844 245.777344 331.84375 268.832031 310.75 287.988281 C 270.917969 324.121094 228.796875 348.199219 188.929688 361.691406 C 184.945312 363.042969 180.988281 364.28125 177.054688 365.417969 C 49.816406 402.242188 -49.152344 330.050781 33.390625 198.511719 C -28.363281 314.648438 47.625 348.585938 145.171875 335.535156 C 160.28125 333.511719 175.902344 330.359375 191.609375 326.21875 C 263.171875 307.34375 336.523438 267.792969 370.855469 219.9375 Z M 370.855469 219.9375 " fill-opacity="1" fill-rule="nonzero"/></g><path fill="#0a4570" d="M 371.988281 218.347656 C 371.988281 218.347656 371.980469 218.359375 371.972656 218.367188 C 371.980469 218.359375 371.980469 218.351562 371.984375 218.347656 Z M 371.988281 218.347656 " fill-opacity="0.3" fill-rule="nonzero"/><path fill="#fe2860" d="M 162.960938 117.707031 C 175.730469 117.925781 175.722656 136.914062 162.960938 137.128906 C 150.195312 136.914062 150.199219 117.925781 162.960938 117.707031 Z M 162.960938 117.707031 " fill-opacity="0.2" fill-rule="nonzero"/><path fill="#fe2860" d="M 162.960938 134.667969 C 153.472656 134.617188 153.472656 120.207031 162.960938 120.152344 C 172.453125 120.207031 172.453125 134.617188 162.960938 134.667969 Z M 162.960938 134.667969 " fill-opacity="0.4" fill-rule="nonzero"/><path fill="#fe2860" d="M 162.960938 132.21875 C 156.730469 132.304688 156.734375 122.527344 162.960938 122.617188 C 169.1875 122.535156 169.1875 132.308594 162.960938 132.21875 Z M 162.960938 132.21875 " fill-opacity="0.6" fill-rule="nonzero"/><path fill="#ffffff" d="M 162.960938 129.761719 C 159.914062 129.804688 159.914062 125.027344 162.960938 125.070312 C 166.007812 125.027344 166.007812 129.804688 162.960938 129.761719 Z M 162.960938 129.761719 " fill-opacity="1" fill-rule="nonzero"/><path fill="#fe2860" d="M 209.613281 128.746094 C 215.84375 128.65625 215.84375 138.4375 209.613281 138.34375 C 203.382812 138.433594 203.382812 128.652344 209.613281 128.746094 Z M 209.613281 128.746094 " fill-opacity="0.2" fill-rule="nonzero"/><path fill="#fe2860" d="M 209.613281 137.136719 C 204.957031 137.203125 204.957031 129.894531 209.613281 129.960938 C 214.273438 129.894531 214.273438 137.203125 209.613281 137.136719 Z M 209.613281 137.136719 " fill-opacity="0.4" fill-rule="nonzero"/><path fill="#fe2860" d="M 209.613281 135.921875 C 206.535156 135.964844 206.535156 131.128906 209.613281 131.171875 C 212.695312 131.128906 212.695312 135.964844 209.613281 135.921875 Z M 209.613281 135.921875 " fill-opacity="0.6" fill-rule="nonzero"/><path fill="#ffffff" d="M 209.613281 134.710938 C 208.105469 134.730469 208.105469 132.367188 209.613281 132.386719 C 211.121094 132.367188 211.121094 134.730469 209.613281 134.710938 Z M 209.613281 134.710938 " fill-opacity="1" fill-rule="nonzero"/><path fill="#fe2860" d="M 218.097656 157.558594 C 225.101562 157.59375 225.101562 168.230469 218.097656 168.261719 C 211.097656 168.230469 211.097656 157.59375 218.097656 157.558594 Z M 218.097656 157.558594 " fill-opacity="0.2" fill-rule="nonzero"/><path fill="#fe2860" d="M 218.097656 166.910156 C 212.910156 166.980469 212.910156 158.839844 218.097656 158.910156 C 223.289062 158.839844 223.289062 166.980469 218.097656 166.910156 Z M 218.097656 166.910156 " fill-opacity="0.4" fill-rule="nonzero"/><path fill="#fe2860" d="M 218.097656 165.558594 C 214.667969 165.605469 214.667969 160.214844 218.097656 160.269531 C 221.53125 160.21875 221.53125 165.609375 218.097656 165.558594 Z M 218.097656 165.558594 " fill-opacity="0.6" fill-rule="nonzero"/><path fill="#ffffff" d="M 218.097656 164.207031 C 216.417969 164.230469 216.417969 161.597656 218.097656 161.621094 C 219.777344 161.597656 219.777344 164.230469 218.097656 164.207031 Z M 218.097656 164.207031 " fill-opacity="1" fill-rule="nonzero"/><path fill="#fe2860" d="M 172.671875 158.160156 C 178.832031 158.070312 178.835938 167.746094 172.671875 167.65625 C 166.511719 167.746094 166.511719 158.070312 172.671875 158.160156 Z M 172.671875 158.160156 " fill-opacity="0.2" fill-rule="nonzero"/><path fill="#fe2860" d="M 172.671875 166.460938 C 168.066406 166.519531 168.066406 159.300781 172.671875 159.363281 C 177.277344 159.296875 177.277344 166.523438 172.671875 166.460938 Z M 172.671875 166.460938 " fill-opacity="0.4" fill-rule="nonzero"/><path fill="#fe2860" d="M 172.671875 165.257812 C 169.625 165.300781 169.625 160.519531 172.671875 160.5625 C 175.71875 160.519531 175.71875 165.300781 172.671875 165.257812 Z M 172.671875 165.257812 " fill-opacity="0.6" fill-rule="nonzero"/><path fill="#ffffff" d="M 172.671875 164.0625 C 171.179688 164.078125 171.179688 161.742188 172.671875 161.761719 C 174.164062 161.742188 174.164062 164.078125 172.671875 164.0625 Z M 172.671875 164.0625 " fill-opacity="1" fill-rule="nonzero"/><path fill="#fe2860" d="M 272.171875 145.8125 C 279.851562 145.847656 279.851562 157.527344 272.171875 157.558594 C 264.488281 157.527344 264.488281 145.847656 272.171875 145.8125 Z M 272.171875 145.8125 " fill-opacity="0.2" fill-rule="nonzero"/><path fill="#fe2860" d="M 272.171875 156.074219 C 266.476562 156.15625 266.476562 147.21875 272.171875 147.296875 C 277.867188 147.21875 277.867188 156.15625 272.171875 156.074219 Z M 272.171875 156.074219 " fill-opacity="0.4" fill-rule="nonzero"/><path fill="#fe2860" d="M 272.171875 154.59375 C 268.398438 154.644531 268.398438 148.730469 272.171875 148.785156 C 275.9375 148.734375 275.941406 154.648438 272.171875 154.59375 Z M 272.171875 154.59375 " fill-opacity="0.6" fill-rule="nonzero"/><path fill="#ffffff" d="M 272.171875 153.109375 C 270.328125 153.136719 270.328125 150.242188 272.171875 150.269531 C 274.011719 150.242188 274.011719 153.136719 272.171875 153.109375 Z M 272.171875 153.109375 " fill-opacity="1" fill-rule="nonzero"/><path fill="#fe2860" d="M 291.957031 121.515625 C 305.753906 121.75 305.753906 142.269531 291.957031 142.503906 C 278.164062 142.269531 278.164062 121.75 291.957031 121.515625 Z M 291.957031 121.515625 " fill-opacity="0.2" fill-rule="nonzero"/><path fill="#fe2860" d="M 291.957031 139.847656 C 281.652344 139.664062 281.652344 124.347656 291.957031 124.164062 C 302.265625 124.347656 302.265625 139.664062 291.957031 139.847656 Z M 291.957031 139.847656 " fill-opacity="0.4" fill-rule="nonzero"/><path fill="#fe2860" d="M 291.957031 137.199219 C 285.171875 137.167969 285.171875 126.859375 291.957031 126.824219 C 298.742188 126.859375 298.742188 137.167969 291.957031 137.199219 Z M 291.957031 137.199219 " fill-opacity="0.6" fill-rule="nonzero"/><path fill="#ffffff" d="M 291.957031 134.546875 C 288.667969 134.59375 288.664062 129.421875 291.957031 129.46875 C 295.253906 129.421875 295.253906 134.59375 291.957031 134.546875 Z M 291.957031 134.546875 " fill-opacity="1" fill-rule="nonzero"/><path fill="#fe2860" d="M 337.929688 166.730469 C 344.714844 166.761719 344.714844 177.078125 337.929688 177.105469 C 331.144531 177.078125 331.144531 166.761719 337.929688 166.730469 Z M 337.929688 166.730469 " fill-opacity="0.2" fill-rule="nonzero"/><path fill="#fe2860" d="M 337.929688 175.800781 C 332.894531 175.871094 332.894531 167.972656 337.929688 168.042969 C 342.964844 167.972656 342.964844 175.871094 337.929688 175.800781 Z M 337.929688 175.800781 " fill-opacity="0.4" fill-rule="nonzero"/><path fill="#fe2860" d="M 337.929688 174.488281 C 334.601562 174.535156 334.601562 169.308594 337.929688 169.355469 C 341.257812 169.308594 341.257812 174.535156 337.929688 174.488281 Z M 337.929688 174.488281 " fill-opacity="0.6" fill-rule="nonzero"/><path fill="#ffffff" d="M 337.929688 173.175781 C 336.300781 173.199219 336.304688 170.640625 337.929688 170.664062 C 339.554688 170.640625 339.558594 173.199219 337.929688 173.175781 Z M 337.929688 173.175781 " fill-opacity="1" fill-rule="nonzero"/><path fill="#fe2860" d="M 249.429688 175.164062 C 259.742188 175.335938 259.738281 190.667969 249.429688 190.847656 C 239.121094 190.671875 239.121094 175.339844 249.429688 175.164062 Z M 249.429688 175.164062 " fill-opacity="0.2" fill-rule="nonzero"/><path fill="#fe2860" d="M 249.429688 188.867188 C 241.765625 188.824219 241.765625 177.1875 249.429688 177.148438 C 257.09375 177.191406 257.089844 188.828125 249.429688 188.867188 Z M 249.429688 188.867188 " fill-opacity="0.4" fill-rule="nonzero"/><path fill="#fe2860" d="M 249.429688 186.886719 C 244.394531 186.957031 244.394531 179.054688 249.429688 179.125 C 254.464844 179.054688 254.464844 186.957031 249.429688 186.886719 Z M 249.429688 186.886719 " fill-opacity="0.6" fill-rule="nonzero"/><path fill="#ffffff" d="M 249.429688 184.902344 C 246.96875 184.9375 246.96875 181.078125 249.429688 181.109375 C 251.890625 181.078125 251.890625 184.9375 249.429688 184.902344 Z M 249.429688 184.902344 " fill-opacity="1" fill-rule="nonzero"/><path fill="#fe2860" d="M 336.074219 215.996094 C 344.0625 216.03125 344.0625 228.175781 336.074219 228.210938 C 328.089844 228.171875 328.089844 216.027344 336.074219 215.996094 Z M 336.074219 215.996094 " fill-opacity="0.2" fill-rule="nonzero"/><path fill="#fe2860" d="M 336.074219 226.664062 C 330.152344 226.75 330.152344 217.457031 336.074219 217.535156 C 341.996094 217.449219 341.996094 226.746094 336.074219 226.664062 Z M 336.074219 226.664062 " fill-opacity="0.4" fill-rule="nonzero"/><path fill="#fe2860" d="M 336.074219 225.125 C 332.15625 225.183594 332.15625 219.027344 336.074219 219.085938 C 339.996094 219.027344 339.996094 225.183594 336.074219 225.125 Z M 336.074219 225.125 " fill-opacity="0.6" fill-rule="nonzero"/><path fill="#ffffff" d="M 336.074219 223.582031 C 334.160156 223.609375 334.160156 220.601562 336.074219 220.625 C 337.992188 220.59375 337.992188 223.605469 336.074219 223.582031 Z M 336.074219 223.582031 " fill-opacity="1" fill-rule="nonzero"/><path fill="#fe2860" d="M 205.203125 88.773438 C 215.515625 88.949219 215.515625 104.285156 205.203125 104.460938 C 194.890625 104.28125 194.890625 88.945312 205.203125 88.773438 Z M 205.203125 88.773438 " fill-opacity="0.2" fill-rule="nonzero"/><path fill="#fe2860" d="M 205.203125 102.480469 C 197.535156 102.4375 197.539062 90.800781 205.203125 90.757812 C 212.867188 90.800781 212.867188 102.4375 205.203125 102.480469 Z M 205.203125 102.480469 " fill-opacity="0.4" fill-rule="nonzero"/><path fill="#fe2860" d="M 205.203125 100.5 C 200.171875 100.570312 200.171875 92.667969 205.203125 92.738281 C 210.238281 92.667969 210.238281 100.570312 205.203125 100.5 Z M 205.203125 100.5 " fill-opacity="0.6" fill-rule="nonzero"/><path fill="#ffffff" d="M 205.203125 98.511719 C 202.742188 98.546875 202.742188 94.6875 205.203125 94.71875 C 207.664062 94.6875 207.664062 98.546875 205.203125 98.511719 Z M 205.203125 98.511719 " fill-opacity="1" fill-rule="nonzero"/><path fill="#fe2860" d="M 226.992188 15.136719 C 237.304688 15.3125 237.304688 30.648438 226.992188 30.824219 C 216.679688 30.644531 216.679688 15.308594 226.992188 15.136719 Z M 226.992188 15.136719 " fill-opacity="0.2" fill-rule="nonzero"/><path fill="#fe2860" d="M 226.992188 28.84375 C 219.324219 28.800781 219.328125 17.164062 226.992188 17.121094 C 234.65625 17.164062 234.65625 28.800781 226.992188 28.84375 Z M 226.992188 28.84375 " fill-opacity="0.4" fill-rule="nonzero"/><path fill="#fe2860" d="M 226.992188 26.863281 C 221.957031 26.933594 221.957031 19.03125 226.992188 19.101562 C 232.027344 19.03125 232.027344 26.933594 226.992188 26.863281 Z M 226.992188 26.863281 " fill-opacity="0.6" fill-rule="nonzero"/><path fill="#ffffff" d="M 226.992188 24.878906 C 224.53125 24.914062 224.53125 21.054688 226.992188 21.085938 C 229.453125 21.054688 229.453125 24.914062 226.992188 24.878906 Z M 226.992188 24.878906 " fill-opacity="1" fill-rule="nonzero"/><path fill="#fe2860" d="M 180.175781 90.207031 C 186.523438 90.234375 186.523438 99.886719 180.175781 99.917969 C 173.828125 99.886719 173.828125 90.234375 180.175781 90.207031 Z M 180.175781 90.207031 " fill-opacity="0.2" fill-rule="nonzero"/><path fill="#fe2860" d="M 180.175781 98.691406 C 175.472656 98.757812 175.472656 91.371094 180.175781 91.4375 C 184.882812 91.371094 184.882812 98.757812 180.175781 98.691406 Z M 180.175781 98.691406 " fill-opacity="0.4" fill-rule="nonzero"/><path fill="#fe2860" d="M 180.175781 97.460938 C 177.0625 97.503906 177.0625 92.617188 180.175781 92.660156 C 183.289062 92.617188 183.289062 97.503906 180.175781 97.460938 Z M 180.175781 97.460938 " fill-opacity="0.6" fill-rule="nonzero"/><path fill="#ffffff" d="M 180.175781 96.234375 C 178.648438 96.257812 178.648438 93.863281 180.175781 93.886719 C 181.699219 93.863281 181.699219 96.257812 180.175781 96.234375 Z M 180.175781 96.234375 " fill-opacity="1" fill-rule="nonzero"/><path fill="#fe2860" d="M 271.316406 76.226562 C 274.578125 76.179688 274.578125 81.300781 271.316406 81.253906 C 268.050781 81.304688 268.050781 76.179688 271.316406 76.226562 Z M 271.316406 76.226562 " fill-opacity="0.2" fill-rule="nonzero"/><path fill="#fe2860" d="M 271.316406 80.617188 C 268.878906 80.648438 268.878906 76.828125 271.316406 76.863281 C 273.753906 76.828125 273.753906 80.648438 271.316406 80.617188 Z M 271.316406 80.617188 " fill-opacity="0.4" fill-rule="nonzero"/><path fill="#fe2860" d="M 271.316406 79.984375 C 269.707031 80.007812 269.707031 77.476562 271.316406 77.5 C 272.925781 77.476562 272.925781 80.007812 271.316406 79.984375 Z M 271.316406 79.984375 " fill-opacity="0.6" fill-rule="nonzero"/><path fill="#ffffff" d="M 271.316406 79.351562 C 270.527344 79.359375 270.527344 78.121094 271.316406 78.132812 C 272.105469 78.125 272.105469 79.363281 271.316406 79.351562 Z M 271.316406 79.351562 " fill-opacity="1" fill-rule="nonzero"/><path fill="#fe2860" d="M 364.132812 181.839844 C 374.445312 182.015625 374.445312 197.355469 364.132812 197.527344 C 353.820312 197.347656 353.820312 182.011719 364.132812 181.839844 Z M 364.132812 181.839844 " fill-opacity="0.2" fill-rule="nonzero"/><path fill="#fe2860" d="M 364.132812 195.542969 C 356.464844 195.5 356.46875 183.863281 364.132812 183.820312 C 371.796875 183.863281 371.796875 195.5 364.132812 195.542969 Z M 364.132812 195.542969 " fill-opacity="0.4" fill-rule="nonzero"/><path fill="#fe2860" d="M 364.132812 193.558594 C 359.097656 193.632812 359.097656 185.730469 364.132812 185.800781 C 369.167969 185.730469 369.167969 193.632812 364.132812 193.558594 Z M 364.132812 193.558594 " fill-opacity="0.6" fill-rule="nonzero"/><path fill="#ffffff" d="M 364.132812 191.578125 C 361.671875 191.613281 361.671875 187.753906 364.132812 187.785156 C 366.59375 187.753906 366.59375 191.613281 364.132812 191.578125 Z M 364.132812 191.578125 " fill-opacity="1" fill-rule="nonzero"/><path fill="#fe2860" d="M 337.792969 51.53125 C 348.105469 51.710938 348.105469 67.046875 337.792969 67.21875 C 327.480469 67.042969 327.480469 51.703125 337.792969 51.53125 Z M 337.792969 51.53125 " fill-opacity="0.2" fill-rule="nonzero"/><path fill="#fe2860" d="M 337.792969 65.234375 C 330.125 65.191406 330.128906 53.554688 337.792969 53.511719 C 345.457031 53.554688 345.457031 65.191406 337.792969 65.234375 Z M 337.792969 65.234375 " fill-opacity="0.4" fill-rule="nonzero"/><path fill="#fe2860" d="M 337.792969 63.253906 C 332.761719 63.324219 332.761719 55.421875 337.792969 55.492188 C 342.828125 55.421875 342.828125 63.324219 337.792969 63.253906 Z M 337.792969 63.253906 " fill-opacity="0.6" fill-rule="nonzero"/><path fill="#ffffff" d="M 337.792969 61.273438 C 335.332031 61.304688 335.332031 57.445312 337.792969 57.480469 C 340.253906 57.445312 340.253906 61.304688 337.792969 61.273438 Z M 337.792969 61.273438 " fill-opacity="1" fill-rule="nonzero"/><path fill="#fe2860" d="M 121.9375 22.980469 C 128.875 23.011719 128.875 33.550781 121.9375 33.582031 C 115.003906 33.550781 115.003906 23.011719 121.9375 22.980469 Z M 121.9375 22.980469 " fill-opacity="0.2" fill-rule="nonzero"/><path fill="#fe2860" d="M 121.9375 32.242188 C 116.796875 32.3125 116.796875 24.246094 121.9375 24.316406 C 127.082031 24.246094 127.082031 32.3125 121.9375 32.242188 Z M 121.9375 32.242188 " fill-opacity="0.4" fill-rule="nonzero"/><path fill="#fe2860" d="M 121.9375 30.902344 C 118.539062 30.949219 118.539062 25.613281 121.9375 25.660156 C 125.339844 25.613281 125.339844 30.949219 121.9375 30.902344 Z M 121.9375 30.902344 " fill-opacity="0.6" fill-rule="nonzero"/><path fill="#ffffff" d="M 121.9375 29.5625 C 120.277344 29.585938 120.277344 26.972656 121.9375 26.996094 C 123.601562 26.972656 123.601562 29.585938 121.9375 29.5625 Z M 121.9375 29.5625 " fill-opacity="1" fill-rule="nonzero"/><path fill="#fe2860" d="M 297.148438 45.363281 C 302.179688 45.285156 302.179688 53.191406 297.148438 53.121094 C 292.113281 53.195312 292.113281 45.292969 297.148438 45.363281 Z M 297.148438 45.363281 " fill-opacity="0.2" fill-rule="nonzero"/><path fill="#fe2860" d="M 297.148438 52.136719 C 293.386719 52.1875 293.386719 46.285156 297.148438 46.339844 C 300.910156 46.285156 300.910156 52.1875 297.148438 52.136719 Z M 297.148438 52.136719 " fill-opacity="0.4" fill-rule="nonzero"/><path fill="#fe2860" d="M 297.148438 51.160156 C 294.660156 51.191406 294.660156 47.292969 297.148438 47.324219 C 299.636719 47.292969 299.636719 51.191406 297.148438 51.160156 Z M 297.148438 51.160156 " fill-opacity="0.6" fill-rule="nonzero"/><path fill="#ffffff" d="M 297.148438 50.179688 C 295.929688 50.191406 295.929688 48.285156 297.148438 48.304688 C 298.363281 48.292969 298.363281 50.199219 297.148438 50.179688 Z M 297.148438 50.179688 " fill-opacity="1" fill-rule="nonzero"/><path fill="#fe2860" d="M 153.25 145.835938 C 158.285156 145.761719 158.285156 153.667969 153.25 153.597656 C 148.214844 153.671875 148.214844 145.765625 153.25 145.835938 Z M 153.25 145.835938 " fill-opacity="0.2" fill-rule="nonzero"/><path fill="#fe2860" d="M 153.25 152.617188 C 149.488281 152.667969 149.488281 146.765625 153.25 146.816406 C 157.011719 146.765625 157.011719 152.667969 153.25 152.617188 Z M 153.25 152.617188 " fill-opacity="0.4" fill-rule="nonzero"/><path fill="#fe2860" d="M 153.25 151.632812 C 150.761719 151.667969 150.761719 147.765625 153.25 147.800781 C 155.738281 147.765625 155.738281 151.667969 153.25 151.632812 Z M 153.25 151.632812 " fill-opacity="0.6" fill-rule="nonzero"/><path fill="#ffffff" d="M 153.25 150.652344 C 152.035156 150.667969 152.035156 148.761719 153.25 148.78125 C 154.464844 148.765625 154.464844 150.671875 153.25 150.652344 Z M 153.25 150.652344 " fill-opacity="1" fill-rule="nonzero"/><path fill="#fe2860" d="M 193.316406 224.957031 C 197.074219 224.902344 197.074219 230.8125 193.316406 230.753906 C 189.554688 230.8125 189.554688 224.902344 193.316406 224.957031 Z M 193.316406 224.957031 " fill-opacity="0.2" fill-rule="nonzero"/><path fill="#fe2860" d="M 193.316406 230.023438 C 190.503906 230.058594 190.503906 225.648438 193.316406 225.6875 C 196.128906 225.652344 196.128906 230.0625 193.316406 230.023438 Z M 193.316406 230.023438 " fill-opacity="0.4" fill-rule="nonzero"/><path fill="#fe2860" d="M 193.316406 229.289062 C 191.457031 229.316406 191.449219 226.394531 193.316406 226.417969 C 195.179688 226.386719 195.179688 229.3125 193.316406 229.289062 Z M 193.316406 229.289062 " fill-opacity="0.6" fill-rule="nonzero"/><path fill="#ffffff" d="M 193.316406 228.550781 C 192.402344 228.566406 192.402344 227.140625 193.316406 227.148438 C 194.226562 227.136719 194.226562 228.5625 193.316406 228.550781 Z M 193.316406 228.550781 " fill-opacity="1" fill-rule="nonzero"/><path fill="#fe2860" d="M 189.910156 3.796875 C 194.945312 3.722656 194.945312 11.628906 189.910156 11.558594 C 184.875 11.632812 184.875 3.726562 189.910156 3.796875 Z M 189.910156 3.796875 " fill-opacity="0.2" fill-rule="nonzero"/><path fill="#fe2860" d="M 189.910156 10.570312 C 186.148438 10.625 186.148438 4.722656 189.910156 4.773438 C 193.671875 4.722656 193.671875 10.625 189.910156 10.570312 Z M 189.910156 10.570312 " fill-opacity="0.4" fill-rule="nonzero"/><path fill="#fe2860" d="M 189.910156 9.589844 C 187.421875 9.625 187.421875 5.722656 189.910156 5.753906 C 192.398438 5.722656 192.398438 9.625 189.910156 9.589844 Z M 189.910156 9.589844 " fill-opacity="0.6" fill-rule="nonzero"/><path fill="#ffffff" d="M 189.910156 8.613281 C 188.695312 8.628906 188.695312 6.722656 189.910156 6.742188 C 191.125 6.726562 191.125 8.632812 189.910156 8.613281 Z M 189.910156 8.613281 " fill-opacity="1" fill-rule="nonzero"/><path fill="#fe2860" d="M 227.9375 62.582031 C 235.746094 62.613281 235.746094 74.488281 227.9375 74.519531 C 220.128906 74.488281 220.128906 62.613281 227.9375 62.582031 Z M 227.9375 62.582031 " fill-opacity="0.2" fill-rule="nonzero"/><path fill="#fe2860" d="M 227.9375 73.015625 C 222.152344 73.097656 222.152344 64.019531 227.9375 64.097656 C 233.722656 64.019531 233.722656 73.097656 227.9375 73.015625 Z M 227.9375 73.015625 " fill-opacity="0.4" fill-rule="nonzero"/><path fill="#fe2860" d="M 227.9375 71.503906 C 224.105469 71.558594 224.105469 65.542969 227.9375 65.601562 C 231.769531 65.546875 231.769531 71.5625 227.9375 71.503906 Z M 227.9375 71.503906 " fill-opacity="0.6" fill-rule="nonzero"/><path fill="#ffffff" d="M 227.9375 70 C 226.0625 70.023438 226.0625 67.082031 227.9375 67.113281 C 229.808594 67.089844 229.808594 70.027344 227.9375 70 Z M 227.9375 70 " fill-opacity="1" fill-rule="nonzero"/><path fill="#fe2860" d="M 299.304688 68.261719 C 309.613281 68.441406 309.613281 83.777344 299.304688 83.949219 C 288.992188 83.773438 288.992188 68.433594 299.304688 68.261719 Z M 299.304688 68.261719 " fill-opacity="0.2" fill-rule="nonzero"/><path fill="#fe2860" d="M 299.304688 81.964844 C 291.632812 81.921875 291.640625 70.285156 299.304688 70.242188 C 306.964844 70.285156 306.964844 81.921875 299.304688 81.964844 Z M 299.304688 81.964844 " fill-opacity="0.4" fill-rule="nonzero"/><path fill="#fe2860" d="M 299.304688 79.984375 C 294.269531 80.054688 294.269531 72.152344 299.304688 72.222656 C 304.335938 72.152344 304.335938 80.054688 299.304688 79.984375 Z M 299.304688 79.984375 " fill-opacity="0.6" fill-rule="nonzero"/><path fill="#ffffff" d="M 299.304688 78.003906 C 296.84375 78.035156 296.84375 74.175781 299.304688 74.210938 C 301.761719 74.175781 301.761719 78.035156 299.304688 78.003906 Z M 299.304688 78.003906 " fill-opacity="1" fill-rule="nonzero"/><path fill="#fe2860" d="M 320.386719 97.257812 C 326.78125 97.289062 326.78125 107.007812 320.386719 107.039062 C 313.992188 107.007812 313.992188 97.289062 320.386719 97.257812 Z M 320.386719 97.257812 " fill-opacity="0.2" fill-rule="nonzero"/><path fill="#fe2860" d="M 320.386719 105.804688 C 315.648438 105.867188 315.644531 98.429688 320.386719 98.492188 C 325.128906 98.429688 325.128906 105.867188 320.386719 105.804688 Z M 320.386719 105.804688 " fill-opacity="0.4" fill-rule="nonzero"/><path fill="#fe2860" d="M 320.386719 104.566406 C 317.25 104.609375 317.25 99.6875 320.386719 99.726562 C 323.523438 99.6875 323.523438 104.609375 320.386719 104.566406 Z M 320.386719 104.566406 " fill-opacity="0.6" fill-rule="nonzero"/><path fill="#ffffff" d="M 320.386719 103.328125 C 318.851562 103.347656 318.851562 100.941406 320.386719 100.964844 C 321.921875 100.945312 321.921875 103.351562 320.386719 103.328125 Z M 320.386719 103.328125 " fill-opacity="1" fill-rule="nonzero"/><path fill="#fe2860" d="M 137.058594 86.203125 C 144.296875 86.238281 144.296875 97.234375 137.058594 97.269531 C 129.824219 97.234375 129.824219 86.238281 137.058594 86.203125 Z M 137.058594 86.203125 " fill-opacity="0.2" fill-rule="nonzero"/><path fill="#fe2860" d="M 137.058594 95.871094 C 131.691406 95.945312 131.695312 87.527344 137.058594 87.601562 C 142.421875 87.527344 142.421875 95.945312 137.058594 95.871094 Z M 137.058594 95.871094 " fill-opacity="0.4" fill-rule="nonzero"/><path fill="#fe2860" d="M 137.058594 94.476562 C 133.507812 94.527344 133.507812 88.953125 137.058594 89.007812 C 140.609375 88.953125 140.609375 94.527344 137.058594 94.476562 Z M 137.058594 94.476562 " fill-opacity="0.6" fill-rule="nonzero"/><path fill="#ffffff" d="M 137.058594 93.078125 C 135.320312 93.101562 135.320312 90.378906 137.058594 90.402344 C 138.796875 90.371094 138.800781 93.105469 137.058594 93.078125 Z M 137.058594 93.078125 " fill-opacity="1" fill-rule="nonzero"/><path fill="#fe2860" d="M 148.445312 33.691406 C 153.359375 33.621094 153.359375 41.328125 148.445312 41.257812 C 143.535156 41.328125 143.535156 33.621094 148.445312 33.691406 Z M 148.445312 33.691406 " fill-opacity="0.2" fill-rule="nonzero"/><path fill="#fe2860" d="M 148.445312 40.304688 C 144.78125 40.359375 144.78125 34.601562 148.445312 34.648438 C 152.113281 34.597656 152.113281 40.351562 148.445312 40.304688 Z M 148.445312 40.304688 " fill-opacity="0.4" fill-rule="nonzero"/><path fill="#fe2860" d="M 148.445312 39.347656 C 146.019531 39.382812 146.019531 35.570312 148.445312 35.605469 C 150.875 35.574219 150.875 39.386719 148.445312 39.347656 Z M 148.445312 39.347656 " fill-opacity="0.6" fill-rule="nonzero"/><path fill="#ffffff" d="M 148.445312 38.390625 C 147.257812 38.40625 147.257812 36.542969 148.445312 36.558594 C 149.632812 36.546875 149.632812 38.410156 148.445312 38.390625 Z M 148.445312 38.390625 " fill-opacity="1" fill-rule="nonzero"/><path fill="#fe2860" d="M 196.324219 24.53125 C 205.855469 24.574219 205.855469 39.066406 196.324219 39.109375 C 186.792969 39.066406 186.792969 24.574219 196.324219 24.53125 Z M 196.324219 24.53125 " fill-opacity="0.2" fill-rule="nonzero"/><path fill="#fe2860" d="M 196.324219 37.265625 C 189.203125 37.226562 189.203125 26.40625 196.324219 26.375 C 203.449219 26.410156 203.449219 37.230469 196.324219 37.265625 Z M 196.324219 37.265625 " fill-opacity="0.4" fill-rule="nonzero"/><path fill="#fe2860" d="M 196.324219 35.425781 C 191.648438 35.488281 191.648438 28.148438 196.324219 28.214844 C 201 28.148438 201 35.488281 196.324219 35.425781 Z M 196.324219 35.425781 " fill-opacity="0.6" fill-rule="nonzero"/><path fill="#ffffff" d="M 196.324219 33.582031 C 194.039062 33.617188 194.035156 30.019531 196.324219 30.054688 C 198.617188 30.019531 198.617188 33.617188 196.324219 33.582031 Z M 196.324219 33.582031 " fill-opacity="1" fill-rule="nonzero"/><path fill="#fe2860" d="M 103.691406 56.398438 C 108.601562 56.328125 108.601562 64.035156 103.691406 63.964844 C 98.78125 64.035156 98.78125 56.328125 103.691406 56.398438 Z M 103.691406 56.398438 " fill-opacity="0.2" fill-rule="nonzero"/><path fill="#fe2860" d="M 103.691406 63.007812 C 100.023438 63.058594 100.023438 57.304688 103.691406 57.351562 C 107.359375 57.300781 107.359375 63.054688 103.691406 63.007812 Z M 103.691406 63.007812 " fill-opacity="0.4" fill-rule="nonzero"/><path fill="#fe2860" d="M 103.691406 62.054688 C 101.261719 62.089844 101.261719 58.277344 103.691406 58.3125 C 106.117188 58.28125 106.117188 62.09375 103.691406 62.054688 Z M 103.691406 62.054688 " fill-opacity="0.6" fill-rule="nonzero"/><path fill="#ffffff" d="M 103.691406 61.097656 C 102.503906 61.113281 102.503906 59.25 103.691406 59.265625 C 104.878906 59.253906 104.878906 61.117188 103.691406 61.097656 Z M 103.691406 61.097656 " fill-opacity="1" fill-rule="nonzero"/><path fill="#fe2860" d="M 187.082031 189.679688 C 199.851562 189.894531 199.847656 208.882812 187.082031 209.097656 C 174.316406 208.882812 174.320312 189.894531 187.082031 189.679688 Z M 187.082031 189.679688 " fill-opacity="0.2" fill-rule="nonzero"/><path fill="#fe2860" d="M 187.082031 206.644531 C 177.59375 206.59375 177.59375 192.179688 187.082031 192.128906 C 196.574219 192.179688 196.574219 206.59375 187.082031 206.644531 Z M 187.082031 206.644531 " fill-opacity="0.4" fill-rule="nonzero"/><path fill="#fe2860" d="M 187.082031 204.191406 C 180.851562 204.277344 180.855469 194.503906 187.082031 194.59375 C 193.308594 194.507812 193.308594 204.28125 187.082031 204.191406 Z M 187.082031 204.191406 " fill-opacity="0.6" fill-rule="nonzero"/><path fill="#ffffff" d="M 187.082031 201.738281 C 184.035156 201.78125 184.035156 197 187.082031 197.042969 C 190.132812 197 190.132812 201.78125 187.082031 201.738281 Z M 187.082031 201.738281 " fill-opacity="1" fill-rule="nonzero"/><path fill="#fe2860" d="M 279.035156 203.117188 C 292.265625 203.34375 292.265625 223.011719 279.035156 223.238281 C 265.808594 223.011719 265.8125 203.34375 279.035156 203.117188 Z M 279.035156 203.117188 " fill-opacity="0.2" fill-rule="nonzero"/><path fill="#fe2860" d="M 279.035156 220.277344 C 269.753906 220.226562 269.757812 206.132812 279.035156 206.082031 C 288.320312 206.132812 288.316406 220.226562 279.035156 220.277344 Z M 279.035156 220.277344 " fill-opacity="0.4" fill-rule="nonzero"/><path fill="#fe2860" d="M 279.035156 217.308594 C 273.679688 217.382812 273.679688 208.972656 279.035156 209.046875 C 284.394531 208.972656 284.394531 217.382812 279.035156 217.308594 Z M 279.035156 217.308594 " fill-opacity="0.6" fill-rule="nonzero"/><path fill="#ffffff" d="M 279.035156 214.347656 C 277.523438 214.371094 277.519531 211.992188 279.035156 212.007812 C 280.550781 211.984375 280.550781 214.367188 279.035156 214.347656 Z M 279.035156 214.347656 " fill-opacity="1" fill-rule="nonzero"/><path fill="#fe2860" d="M 295.519531 274.671875 C 305.164062 274.714844 305.164062 289.378906 295.519531 289.414062 C 285.871094 289.375 285.871094 274.707031 295.519531 274.671875 Z M 295.519531 274.671875 " fill-opacity="0.2" fill-rule="nonzero"/><path fill="#fe2860" d="M 295.519531 287.242188 C 288.71875 287.203125 288.71875 276.878906 295.519531 276.839844 C 302.316406 276.878906 302.316406 287.203125 295.519531 287.242188 Z M 295.519531 287.242188 " fill-opacity="0.4" fill-rule="nonzero"/><path fill="#fe2860" d="M 295.519531 285.070312 C 291.585938 285.121094 291.585938 278.960938 295.519531 279.011719 C 299.445312 278.957031 299.445312 285.121094 295.519531 285.070312 Z M 295.519531 285.070312 " fill-opacity="0.6" fill-rule="nonzero"/><path fill="#ffffff" d="M 295.519531 282.894531 C 294.410156 282.910156 294.410156 281.171875 295.519531 281.1875 C 296.625 281.171875 296.625 282.910156 295.519531 282.894531 Z M 295.519531 282.894531 " fill-opacity="1" fill-rule="nonzero"/><path fill="#0086ff" d="M 226.921875 197.039062 C 245.394531 197.355469 245.390625 224.824219 226.921875 225.140625 C 208.449219 224.824219 208.453125 197.355469 226.921875 197.039062 Z M 226.921875 197.039062 " fill-opacity="0.2" fill-rule="nonzero"/><path fill="#0086ff" d="M 226.921875 222.136719 C 212.398438 221.878906 212.402344 200.296875 226.921875 200.042969 C 241.445312 200.300781 241.441406 221.882812 226.921875 222.136719 Z M 226.921875 222.136719 " fill-opacity="0.4" fill-rule="nonzero"/><path fill="#0086ff" d="M 226.921875 219.136719 C 216.34375 218.949219 216.347656 203.226562 226.921875 203.042969 C 237.5 203.230469 237.496094 218.953125 226.921875 219.136719 Z M 226.921875 219.136719 " fill-opacity="0.6" fill-rule="nonzero"/><path fill="#0086ff" d="M 226.921875 216.136719 C 220.324219 216.101562 220.324219 206.082031 226.921875 206.046875 C 233.519531 206.082031 233.519531 216.101562 226.921875 216.136719 Z M 226.921875 216.136719 " fill-opacity="0.8" fill-rule="nonzero"/><path fill="#ffffff" d="M 226.921875 213.136719 C 224.269531 213.171875 224.269531 209.011719 226.921875 209.046875 C 229.574219 209.011719 229.574219 213.171875 226.921875 213.136719 Z M 226.921875 213.136719 " fill-opacity="1" fill-rule="nonzero"/><path fill="#0086ff" d="M 171.457031 63.679688 C 179.730469 63.71875 179.730469 76.292969 171.457031 76.332031 C 163.183594 76.292969 163.183594 63.71875 171.457031 63.679688 Z M 171.457031 63.679688 " fill-opacity="0.2" fill-rule="nonzero"/><path fill="#0086ff" d="M 171.457031 74.984375 C 164.949219 74.949219 164.949219 65.066406 171.457031 65.035156 C 177.964844 65.070312 177.953125 74.949219 171.457031 74.984375 Z M 171.457031 74.984375 " fill-opacity="0.4" fill-rule="nonzero"/><path fill="#0086ff" d="M 171.457031 73.628906 C 166.753906 73.691406 166.753906 66.3125 171.457031 66.378906 C 176.15625 66.3125 176.15625 73.691406 171.457031 73.628906 Z M 171.457031 73.628906 " fill-opacity="0.6" fill-rule="nonzero"/><path fill="#0086ff" d="M 171.457031 72.273438 C 168.507812 72.3125 168.511719 67.695312 171.457031 67.730469 C 174.398438 67.695312 174.398438 72.3125 171.457031 72.273438 Z M 171.457031 72.273438 " fill-opacity="0.8" fill-rule="nonzero"/><path fill="#ffffff" d="M 171.457031 70.929688 C 170.261719 70.945312 170.261719 69.074219 171.457031 69.085938 C 172.648438 69.070312 172.648438 70.941406 171.457031 70.929688 Z M 171.457031 70.929688 " fill-opacity="1" fill-rule="nonzero"/><path fill="#0086ff" d="M 240.855469 120.371094 C 253.402344 120.585938 253.402344 139.246094 240.855469 139.457031 C 228.308594 139.242188 228.308594 120.582031 240.855469 120.371094 Z M 240.855469 120.371094 " fill-opacity="0.2" fill-rule="nonzero"/><path fill="#0086ff" d="M 240.859375 137.414062 C 231.046875 137.363281 231.039062 122.453125 240.859375 122.402344 C 250.679688 122.453125 250.671875 137.363281 240.859375 137.414062 Z M 240.859375 137.414062 " fill-opacity="0.4" fill-rule="nonzero"/><path fill="#0086ff" d="M 240.859375 135.378906 C 233.710938 135.339844 233.710938 124.488281 240.859375 124.449219 C 248.007812 124.488281 248.007812 135.339844 240.859375 135.378906 Z M 240.859375 135.378906 " fill-opacity="0.6" fill-rule="nonzero"/><path fill="#0086ff" d="M 240.859375 133.339844 C 236.414062 133.402344 236.414062 126.425781 240.859375 126.488281 C 245.304688 126.425781 245.304688 133.402344 240.859375 133.339844 Z M 240.859375 133.339844 " fill-opacity="0.8" fill-rule="nonzero"/><path fill="#ffffff" d="M 240.859375 131.304688 C 239.054688 131.328125 239.054688 128.5 240.859375 128.523438 C 242.664062 128.5 242.664062 131.328125 240.859375 131.304688 Z M 240.859375 131.304688 " fill-opacity="1" fill-rule="nonzero"/><path fill="#0086ff" d="M 262.769531 87.691406 C 271.183594 87.730469 271.183594 100.523438 262.769531 100.558594 C 254.355469 100.523438 254.355469 87.730469 262.769531 87.691406 Z M 262.769531 87.691406 " fill-opacity="0.2" fill-rule="nonzero"/><path fill="#0086ff" d="M 262.769531 99.183594 C 256.152344 99.152344 256.152344 89.101562 262.769531 89.066406 C 269.386719 89.101562 269.386719 99.152344 262.769531 99.183594 Z M 262.769531 99.183594 " fill-opacity="0.4" fill-rule="nonzero"/><path fill="#0086ff" d="M 262.769531 97.808594 C 257.988281 97.875 257.988281 90.371094 262.769531 90.4375 C 267.550781 90.371094 267.550781 97.875 262.769531 97.808594 Z M 262.769531 97.808594 " fill-opacity="0.6" fill-rule="nonzero"/><path fill="#0086ff" d="M 262.769531 96.4375 C 259.769531 96.480469 259.769531 91.769531 262.769531 91.8125 C 265.769531 91.769531 265.769531 96.480469 262.769531 96.4375 Z M 262.769531 96.4375 " fill-opacity="0.8" fill-rule="nonzero"/><path fill="#ffffff" d="M 262.769531 95.0625 C 261.554688 95.074219 261.554688 93.171875 262.769531 93.1875 C 263.984375 93.175781 263.976562 95.074219 262.769531 95.0625 Z M 262.769531 95.0625 " fill-opacity="1" fill-rule="nonzero"/><path fill="#0086ff" d="M 262.769531 42.070312 C 273.890625 42.257812 273.882812 58.792969 262.769531 58.980469 C 251.648438 58.792969 251.65625 42.257812 262.769531 42.070312 Z M 262.769531 42.070312 " fill-opacity="0.2" fill-rule="nonzero"/><path fill="#0086ff" d="M 262.769531 57.179688 C 254.074219 57.132812 254.070312 43.921875 262.769531 43.878906 C 271.464844 43.925781 271.460938 57.132812 262.769531 57.179688 Z M 262.769531 57.179688 " fill-opacity="0.4" fill-rule="nonzero"/><path fill="#0086ff" d="M 262.769531 55.371094 C 256.433594 55.335938 256.433594 45.714844 262.769531 45.679688 C 269.105469 45.714844 269.105469 55.335938 262.769531 55.371094 Z M 262.769531 55.371094 " fill-opacity="0.6" fill-rule="nonzero"/><path fill="#0086ff" d="M 262.769531 53.5625 C 258.832031 53.621094 258.832031 47.433594 262.769531 47.488281 C 266.710938 47.433594 266.710938 53.621094 262.769531 53.5625 Z M 262.769531 53.5625 " fill-opacity="0.8" fill-rule="nonzero"/><path fill="#ffffff" d="M 262.769531 51.757812 C 261.171875 51.773438 261.179688 49.277344 262.769531 49.296875 C 264.363281 49.273438 264.367188 51.78125 262.769531 51.757812 Z M 262.769531 51.757812 " fill-opacity="1" fill-rule="nonzero"/><path fill="#0086ff" d="M 265.082031 3.847656 C 271.261719 3.761719 271.261719 13.464844 265.082031 13.371094 C 258.902344 13.457031 258.902344 3.753906 265.082031 3.847656 Z M 265.082031 3.847656 " fill-opacity="0.2" fill-rule="nonzero"/><path fill="#0086ff" d="M 265.082031 12.355469 C 260.21875 12.425781 260.21875 4.796875 265.082031 4.867188 C 269.9375 4.796875 269.9375 12.425781 265.082031 12.355469 Z M 265.082031 12.355469 " fill-opacity="0.4" fill-rule="nonzero"/><path fill="#0086ff" d="M 265.082031 11.335938 C 261.542969 11.382812 261.542969 5.835938 265.082031 5.882812 C 268.617188 5.835938 268.617188 11.382812 265.082031 11.335938 Z M 265.082031 11.335938 " fill-opacity="0.6" fill-rule="nonzero"/><path fill="#0086ff" d="M 265.082031 10.324219 C 262.863281 10.355469 262.863281 6.871094 265.082031 6.90625 C 267.296875 6.871094 267.296875 10.355469 265.082031 10.324219 Z M 265.082031 10.324219 " fill-opacity="0.8" fill-rule="nonzero"/><path fill="#ffffff" d="M 265.082031 9.308594 C 264.183594 9.324219 264.183594 7.914062 265.082031 7.925781 C 265.976562 7.910156 265.976562 9.320312 265.082031 9.308594 Z M 265.082031 9.308594 " fill-opacity="1" fill-rule="nonzero"/><path fill="#0086ff" d="M 163.472656 174.679688 C 174.058594 174.859375 174.058594 190.597656 163.472656 190.78125 C 152.890625 190.601562 152.890625 174.863281 163.472656 174.679688 Z M 163.472656 174.679688 " fill-opacity="0.2" fill-rule="nonzero"/><path fill="#0086ff" d="M 163.472656 189.058594 C 155.191406 189.015625 155.195312 176.433594 163.472656 176.394531 C 171.75 176.433594 171.75 189.015625 163.472656 189.058594 Z M 163.472656 189.058594 " fill-opacity="0.4" fill-rule="nonzero"/><path fill="#0086ff" d="M 163.472656 187.339844 C 157.492188 187.425781 157.492188 178.035156 163.472656 178.121094 C 169.457031 178.035156 169.457031 187.425781 163.472656 187.339844 Z M 163.472656 187.339844 " fill-opacity="0.6" fill-rule="nonzero"/><path fill="#0086ff" d="M 163.472656 185.617188 C 159.722656 185.667969 159.722656 179.777344 163.472656 179.835938 C 167.226562 179.78125 167.226562 185.675781 163.472656 185.617188 Z M 163.472656 185.617188 " fill-opacity="0.8" fill-rule="nonzero"/><path fill="#ffffff" d="M 163.472656 183.898438 C 161.953125 183.917969 161.953125 181.539062 163.472656 181.558594 C 164.996094 181.539062 164.996094 183.917969 163.472656 183.898438 Z M 163.472656 183.898438 " fill-opacity="1" fill-rule="nonzero"/><path fill="#0086ff" d="M 358.273438 125.351562 C 368.777344 125.527344 368.777344 141.152344 358.273438 141.324219 C 347.769531 141.148438 347.773438 125.523438 358.273438 125.351562 Z M 358.273438 125.351562 " fill-opacity="0.2" fill-rule="nonzero"/><path fill="#0086ff" d="M 358.273438 139.621094 C 350.054688 139.578125 350.054688 127.097656 358.273438 127.054688 C 366.488281 127.097656 366.488281 139.578125 358.273438 139.621094 Z M 358.273438 139.621094 " fill-opacity="0.4" fill-rule="nonzero"/><path fill="#0086ff" d="M 358.273438 137.914062 C 352.335938 137.992188 352.339844 128.683594 358.273438 128.761719 C 364.207031 128.683594 364.207031 137.992188 358.273438 137.914062 Z M 358.273438 137.914062 " fill-opacity="0.6" fill-rule="nonzero"/><path fill="#0086ff" d="M 358.273438 136.207031 C 354.546875 136.261719 354.554688 130.421875 358.273438 130.472656 C 361.992188 130.421875 361.992188 136.261719 358.273438 136.207031 Z M 358.273438 136.207031 " fill-opacity="0.8" fill-rule="nonzero"/><path fill="#ffffff" d="M 358.273438 134.5 C 356.765625 134.519531 356.765625 132.15625 358.273438 132.175781 C 359.78125 132.15625 359.78125 134.519531 358.273438 134.5 Z M 358.273438 134.5 " fill-opacity="1" fill-rule="nonzero"/><path fill="#0086ff" d="M 342.035156 86.671875 C 348.214844 86.582031 348.214844 96.289062 342.035156 96.195312 C 335.855469 96.28125 335.855469 86.578125 342.035156 86.671875 Z M 342.035156 86.671875 " fill-opacity="0.2" fill-rule="nonzero"/><path fill="#0086ff" d="M 342.035156 95.175781 C 337.175781 95.246094 337.175781 87.617188 342.035156 87.6875 C 346.890625 87.617188 346.890625 95.246094 342.035156 95.175781 Z M 342.035156 95.175781 " fill-opacity="0.4" fill-rule="nonzero"/><path fill="#0086ff" d="M 342.035156 94.160156 C 338.5 94.207031 338.5 88.660156 342.035156 88.707031 C 345.570312 88.660156 345.570312 94.207031 342.035156 94.160156 Z M 342.035156 94.160156 " fill-opacity="0.6" fill-rule="nonzero"/><path fill="#0086ff" d="M 342.035156 93.140625 C 339.816406 93.175781 339.816406 89.691406 342.035156 89.722656 C 344.25 89.691406 344.25 93.175781 342.035156 93.140625 Z M 342.035156 93.140625 " fill-opacity="0.8" fill-rule="nonzero"/><path fill="#ffffff" d="M 342.035156 92.128906 C 341.136719 92.140625 341.136719 90.734375 342.035156 90.742188 C 342.929688 90.730469 342.929688 92.136719 342.035156 92.128906 Z M 342.035156 92.128906 " fill-opacity="1" fill-rule="nonzero"/><path fill="#0086ff" d="M 131.527344 64.328125 C 137.707031 64.238281 137.707031 73.941406 131.527344 73.847656 C 125.347656 73.9375 125.347656 64.234375 131.527344 64.328125 Z M 131.527344 64.328125 " fill-opacity="0.2" fill-rule="nonzero"/><path fill="#0086ff" d="M 131.527344 72.828125 C 126.667969 72.898438 126.667969 65.269531 131.527344 65.339844 C 136.382812 65.269531 136.382812 72.898438 131.527344 72.828125 Z M 131.527344 72.828125 " fill-opacity="0.4" fill-rule="nonzero"/><path fill="#0086ff" d="M 131.527344 71.816406 C 127.992188 71.863281 127.992188 66.3125 131.527344 66.359375 C 135.0625 66.3125 135.0625 71.863281 131.527344 71.816406 Z M 131.527344 71.816406 " fill-opacity="0.6" fill-rule="nonzero"/><path fill="#0086ff" d="M 131.527344 70.796875 C 129.3125 70.828125 129.3125 67.347656 131.527344 67.378906 C 133.746094 67.347656 133.746094 70.828125 131.527344 70.796875 Z M 131.527344 70.796875 " fill-opacity="0.8" fill-rule="nonzero"/><path fill="#ffffff" d="M 131.527344 69.777344 C 130.632812 69.792969 130.632812 68.382812 131.527344 68.394531 C 132.425781 68.378906 132.425781 69.789062 131.527344 69.777344 Z M 131.527344 69.777344 " fill-opacity="1" fill-rule="nonzero"/><path fill="#0086ff" d="M 296.207031 19.597656 C 307.535156 19.792969 307.53125 36.628906 296.207031 36.824219 C 284.882812 36.628906 284.886719 19.792969 296.207031 19.597656 Z M 296.207031 19.597656 " fill-opacity="0.2" fill-rule="nonzero"/><path fill="#0086ff" d="M 296.207031 34.988281 C 287.347656 34.941406 287.347656 21.488281 296.207031 21.4375 C 305.070312 21.488281 305.066406 34.941406 296.207031 34.988281 Z M 296.207031 34.988281 " fill-opacity="0.4" fill-rule="nonzero"/><path fill="#0086ff" d="M 296.207031 33.148438 C 289.757812 33.113281 289.757812 23.3125 296.207031 23.28125 C 302.660156 23.3125 302.660156 33.113281 296.207031 33.148438 Z M 296.207031 33.148438 " fill-opacity="0.6" fill-rule="nonzero"/><path fill="#0086ff" d="M 296.207031 31.308594 C 292.199219 31.363281 292.199219 25.0625 296.207031 25.125 C 300.21875 25.066406 300.21875 31.367188 296.207031 31.308594 Z M 296.207031 31.308594 " fill-opacity="0.8" fill-rule="nonzero"/><path fill="#ffffff" d="M 296.207031 29.46875 C 294.578125 29.492188 294.578125 26.9375 296.207031 26.960938 C 297.832031 26.9375 297.832031 29.492188 296.207031 29.46875 Z M 296.207031 29.46875 " fill-opacity="1" fill-rule="nonzero"/><path fill="#0086ff" d="M 162.917969 0 C 174.246094 0.191406 174.242188 17.03125 162.917969 17.222656 C 151.59375 17.03125 151.597656 0.191406 162.917969 0 Z M 162.917969 0 " fill-opacity="0.2" fill-rule="nonzero"/><path fill="#0086ff" d="M 162.917969 15.386719 C 154.058594 15.339844 154.058594 1.886719 162.917969 1.839844 C 171.78125 1.886719 171.773438 15.339844 162.917969 15.386719 Z M 162.917969 15.386719 " fill-opacity="0.4" fill-rule="nonzero"/><path fill="#0086ff" d="M 162.917969 13.542969 C 156.46875 13.511719 156.46875 3.707031 162.917969 3.675781 C 169.371094 3.707031 169.371094 13.511719 162.917969 13.542969 Z M 162.917969 13.542969 " fill-opacity="0.6" fill-rule="nonzero"/><path fill="#0086ff" d="M 162.917969 11.707031 C 158.910156 11.765625 158.910156 5.464844 162.917969 5.523438 C 166.929688 5.46875 166.929688 11.769531 162.917969 11.707031 Z M 162.917969 11.707031 " fill-opacity="0.8" fill-rule="nonzero"/><path fill="#ffffff" d="M 162.917969 9.867188 C 161.289062 9.890625 161.289062 7.335938 162.917969 7.359375 C 164.542969 7.335938 164.542969 9.890625 162.917969 9.867188 Z M 162.917969 9.867188 " fill-opacity="1" fill-rule="nonzero"/><path fill="#0086ff" d="M 310.316406 158.027344 C 314.941406 157.960938 314.941406 165.230469 310.316406 165.160156 C 305.6875 165.226562 305.6875 157.957031 310.316406 158.027344 Z M 310.316406 158.027344 " fill-opacity="0.2" fill-rule="nonzero"/><path fill="#0086ff" d="M 310.316406 164.398438 C 306.675781 164.449219 306.675781 158.742188 310.316406 158.792969 C 313.953125 158.742188 313.953125 164.449219 310.316406 164.398438 Z M 310.316406 164.398438 " fill-opacity="0.4" fill-rule="nonzero"/><path fill="#0086ff" d="M 310.316406 163.632812 C 307.667969 163.671875 307.660156 159.507812 310.316406 159.542969 C 312.96875 159.507812 312.96875 163.671875 310.316406 163.632812 Z M 310.316406 163.632812 " fill-opacity="0.6" fill-rule="nonzero"/><path fill="#0086ff" d="M 310.316406 162.871094 C 308.652344 162.898438 308.652344 160.285156 310.316406 160.308594 C 311.976562 160.285156 311.976562 162.898438 310.316406 162.871094 Z M 310.316406 162.871094 " fill-opacity="0.8" fill-rule="nonzero"/><path fill="#ffffff" d="M 310.316406 162.113281 C 309.644531 162.121094 309.644531 161.066406 310.316406 161.074219 C 310.984375 161.066406 310.984375 162.121094 310.316406 162.113281 Z M 310.316406 162.113281 " fill-opacity="1" fill-rule="nonzero"/><path fill="#0086ff" d="M 251.328125 226.277344 C 259.101562 226.308594 259.101562 238.128906 251.328125 238.167969 C 243.550781 238.132812 243.550781 226.3125 251.328125 226.277344 Z M 251.328125 226.277344 " fill-opacity="0.2" fill-rule="nonzero"/><path fill="#0086ff" d="M 251.328125 236.894531 C 245.257812 236.980469 245.257812 227.457031 251.328125 227.542969 C 257.394531 227.457031 257.394531 236.980469 251.328125 236.894531 Z M 251.328125 236.894531 " fill-opacity="0.4" fill-rule="nonzero"/><path fill="#0086ff" d="M 251.328125 235.621094 C 246.90625 235.683594 246.90625 228.75 251.328125 228.8125 C 255.746094 228.75 255.746094 235.683594 251.328125 235.621094 Z M 251.328125 235.621094 " fill-opacity="0.6" fill-rule="nonzero"/><path fill="#0086ff" d="M 251.328125 234.351562 C 248.554688 234.386719 248.558594 230.046875 251.328125 230.082031 C 254.09375 230.046875 254.09375 234.386719 251.328125 234.351562 Z M 251.328125 234.351562 " fill-opacity="0.8" fill-rule="nonzero"/><path fill="#ffffff" d="M 251.328125 233.082031 C 250.203125 233.097656 250.203125 231.339844 251.328125 231.355469 C 252.449219 231.339844 252.449219 233.097656 251.328125 233.082031 Z M 251.328125 233.082031 " fill-opacity="1" fill-rule="nonzero"/><path fill="#0086ff" d="M 193.316406 114.421875 C 201.089844 114.453125 201.089844 126.273438 193.316406 126.3125 C 185.539062 126.28125 185.539062 114.460938 193.316406 114.421875 Z M 193.316406 114.421875 " fill-opacity="0.2" fill-rule="nonzero"/><path fill="#0086ff" d="M 193.316406 125.039062 C 187.246094 125.125 187.246094 115.605469 193.316406 115.6875 C 199.382812 115.605469 199.382812 125.125 193.316406 125.039062 Z M 193.316406 125.039062 " fill-opacity="0.4" fill-rule="nonzero"/><path fill="#0086ff" d="M 193.316406 123.773438 C 188.894531 123.835938 188.894531 116.902344 193.316406 116.960938 C 197.734375 116.902344 197.734375 123.835938 193.316406 123.773438 Z M 193.316406 123.773438 " fill-opacity="0.6" fill-rule="nonzero"/><path fill="#0086ff" d="M 193.316406 122.503906 C 190.542969 122.542969 190.550781 118.199219 193.316406 118.238281 C 196.082031 118.199219 196.082031 122.542969 193.316406 122.503906 Z M 193.316406 122.503906 " fill-opacity="0.8" fill-rule="nonzero"/><path fill="#ffffff" d="M 193.316406 121.234375 C 192.191406 121.246094 192.191406 119.492188 193.316406 119.507812 C 194.4375 119.492188 194.4375 121.246094 193.316406 121.234375 Z M 193.316406 121.234375 " fill-opacity="1" fill-rule="nonzero"/><path fill="#0086ff" d="M 231.816406 84.761719 C 235.5 84.710938 235.5 90.5 231.816406 90.441406 C 228.128906 90.496094 228.128906 84.707031 231.816406 84.761719 Z M 231.816406 84.761719 " fill-opacity="0.2" fill-rule="nonzero"/><path fill="#0086ff" d="M 231.816406 89.832031 C 228.921875 89.871094 228.917969 85.332031 231.816406 85.367188 C 234.707031 85.332031 234.707031 89.871094 231.816406 89.832031 Z M 231.816406 89.832031 " fill-opacity="0.4" fill-rule="nonzero"/><path fill="#0086ff" d="M 231.816406 89.226562 C 229.707031 89.253906 229.707031 85.945312 231.816406 85.972656 C 233.921875 85.945312 233.921875 89.253906 231.816406 89.226562 Z M 231.816406 89.226562 " fill-opacity="0.6" fill-rule="nonzero"/><path fill="#0086ff" d="M 231.816406 88.621094 C 230.492188 88.640625 230.492188 86.558594 231.816406 86.578125 C 233.140625 86.558594 233.140625 88.640625 231.816406 88.621094 Z M 231.816406 88.621094 " fill-opacity="0.8" fill-rule="nonzero"/><path fill="#ffffff" d="M 231.816406 88.015625 C 231.28125 88.023438 231.28125 87.183594 231.816406 87.195312 C 232.351562 87.183594 232.351562 88.023438 231.816406 88.015625 Z M 231.816406 88.015625 " fill-opacity="1" fill-rule="nonzero"/><path fill="#0086ff" d="M 331.65625 125.632812 C 336.761719 125.558594 336.761719 133.574219 331.65625 133.5 C 326.550781 133.574219 326.550781 125.558594 331.65625 125.632812 Z M 331.65625 125.632812 " fill-opacity="0.2" fill-rule="nonzero"/><path fill="#0086ff" d="M 331.65625 132.660156 C 327.640625 132.714844 327.640625 126.417969 331.65625 126.46875 C 335.671875 126.410156 335.671875 132.710938 331.65625 132.660156 Z M 331.65625 132.660156 " fill-opacity="0.4" fill-rule="nonzero"/><path fill="#0086ff" d="M 331.65625 131.820312 C 328.734375 131.855469 328.734375 127.273438 331.65625 127.3125 C 334.578125 127.269531 334.578125 131.855469 331.65625 131.820312 Z M 331.65625 131.820312 " fill-opacity="0.6" fill-rule="nonzero"/><path fill="#0086ff" d="M 331.65625 130.980469 C 329.824219 131.007812 329.820312 128.125 331.65625 128.152344 C 333.492188 128.125 333.492188 131.007812 331.65625 130.980469 Z M 331.65625 130.980469 " fill-opacity="0.8" fill-rule="nonzero"/><path fill="#ffffff" d="M 331.65625 130.140625 C 330.914062 130.148438 330.914062 128.988281 331.65625 128.992188 C 332.398438 128.984375 332.398438 130.148438 331.65625 130.140625 Z M 331.65625 130.140625 " fill-opacity="1" fill-rule="nonzero"/><path fill="#fe2860" d="M 248.101562 259.039062 C 264.261719 259.316406 264.257812 283.347656 248.101562 283.621094 C 231.9375 283.347656 231.941406 259.316406 248.101562 259.039062 Z M 248.101562 259.039062 " fill-opacity="0.2" fill-rule="nonzero"/><path fill="#fe2860" d="M 248.101562 280.054688 C 236.628906 279.847656 236.632812 262.808594 248.101562 262.601562 C 259.570312 262.808594 259.566406 279.847656 248.101562 280.054688 Z M 248.101562 280.054688 " fill-opacity="0.4" fill-rule="nonzero"/><path fill="#fe2860" d="M 248.101562 276.488281 C 241.351562 276.453125 241.351562 266.203125 248.101562 266.164062 C 254.847656 266.199219 254.847656 276.449219 248.101562 276.488281 Z M 248.101562 276.488281 " fill-opacity="0.6" fill-rule="nonzero"/><path fill="#ffffff" d="M 248.101562 272.917969 C 246.035156 272.949219 246.035156 269.703125 248.101562 269.730469 C 250.167969 269.703125 250.167969 272.949219 248.101562 272.917969 Z M 248.101562 272.917969 " fill-opacity="1" fill-rule="nonzero"/><path fill="#fe2860" d="M 219.976562 243.285156 C 227.714844 243.316406 227.714844 255.085938 219.976562 255.117188 C 212.238281 255.085938 212.238281 243.316406 219.976562 243.285156 Z M 219.976562 243.285156 " fill-opacity="0.2" fill-rule="nonzero"/><path fill="#fe2860" d="M 219.976562 253.398438 C 214.53125 253.476562 214.53125 244.925781 219.976562 245.003906 C 225.425781 244.925781 225.425781 253.476562 219.976562 253.398438 Z M 219.976562 253.398438 " fill-opacity="0.4" fill-rule="nonzero"/><path fill="#fe2860" d="M 219.976562 251.683594 C 216.757812 251.730469 216.75 246.667969 219.976562 246.714844 C 223.199219 246.667969 223.199219 251.730469 219.976562 251.683594 Z M 219.976562 251.683594 " fill-opacity="0.6" fill-rule="nonzero"/><path fill="#ffffff" d="M 219.976562 249.964844 C 218.980469 249.976562 218.988281 248.414062 219.976562 248.429688 C 220.972656 248.414062 220.96875 249.972656 219.976562 249.964844 Z M 219.976562 249.964844 " fill-opacity="1" fill-rule="nonzero"/></svg>